<svg xmlns="http://www.w3.org/2000/svg" viewBox="0 0 64 64">
  <defs>
    <linearGradient id="bg" x1="0" y1="0" x2="1" y2="1">
      <stop offset="0%" stop-color="#0c1628"/>
      <stop offset="100%" stop-color="#060b14"/>
    </linearGradient>
    <linearGradient id="body" x1="0" y1="0" x2="1" y2="1">
      <stop offset="0%" stop-color="#f7fbff"/>
      <stop offset="100%" stop-color="#9fb7cc"/>
    </linearGradient>
    <linearGradient id="flame" x1="0" y1="0" x2="0" y2="1">
      <stop offset="0%" stop-color="#fff1c8"/>
      <stop offset="55%" stop-color="#ffad4d"/>
      <stop offset="100%" stop-color="#ff6b2d"/>
    </linearGradient>
  </defs>
  <rect width="64" height="64" rx="14" fill="url(#bg)"/>
  <circle cx="32" cy="32" r="22" fill="#78beff" fill-opacity="0.08"/>
  <g transform="translate(32 34)">
    <path d="M0 -23 L8 -11 L8 8 L13 18 L7 18 L3 11 L-3 11 L-7 18 L-13 18 L-8 8 L-8 -11 Z" fill="url(#body)"/>
    <path d="M-2 -5 A2 2 0 1 0 2 -5 A2 2 0 1 0 -2 -5" fill="#88b8e4"/>
    <path d="M-4 18 Q0 33 4 18 Z" fill="url(#flame)"/>
  </g>
</svg>
